<?xml version="1.0" encoding="utf-8"?>
<!-- Generator: Adobe Illustrator 23.0.1, SVG Export Plug-In . SVG Version: 6.00 Build 0)  -->
<svg version="1.1" id="Layer_1" xmlns="http://www.w3.org/2000/svg" xmlns:xlink="http://www.w3.org/1999/xlink" x="0px" y="0px"
	 viewBox="0 0 630 173" style="enable-background:new 0 0 630 173;" xml:space="preserve">
<style type="text/css">
	.st0{fill:#298ACA;}
	.st1{fill:#FFFFFF;}
	.st2{font-family:'Helvetica-Bold';}
	.st3{font-size:50.06px;}
	.st4{fill:#98508A;}
	.st5{fill:#E7435B;}
	.st6{fill:#F4812F;}
	.st7{fill:#FBB22F;}
	.st8{fill:#FFD42A;}
</style>
<title>Asset 1</title>
<g>
	<g id="lemin.">
		<rect y="17.3" class="st0" width="34.6" height="151.1"/>
		<text transform="matrix(1 3.839715e-03 -3.839715e-03 1 579.72 45.19)" class="st1 st2 st3">™</text>
		<path class="st4" d="M87.3,122c0.8,19.2,10.2,28,27,28.1c12.2,0,22-7.4,24-14.2l26.7,0.1c-8.6,26-26.9,37.1-51.9,37
			c-34.8-0.2-56.3-24.2-56.2-58.4c0.1-33.1,23.1-58.2,56.7-58.1c37.6,0.1,55.7,31.8,53.4,65.8L87.3,122z M136.8,103
			c-2.7-15.4-9.3-23.5-24.1-23.6c-19.2-0.1-24.8,14.9-25.3,23.4L136.8,103z"/>
		<path class="st5" d="M190.4,59.8l28.6,0.1l-0.1,15h0.4c8-11.3,19.5-17.9,33.8-17.8c13.9,0,26.3,5.2,32.2,18.5
			c6.4-9.6,18-18.3,33.4-18.2c23.5,0.1,40.4,11.1,40.2,39.7l-0.3,73.9l-30.4-0.1l0.2-62.6c0-14.8-1.2-26.9-18.5-27
			c-17.1-0.1-20.4,14-20.4,27.9l-0.2,61.6l-30.4-0.1l0.2-62c0-12.8,1-27.6-18.3-27.6c-6,0-20.5,3.8-20.6,25.3l-0.2,64.1l-30.3-0.2
			L190.4,59.8z"/>
		<path class="st6" d="M388.3,60.5l30.4,0.1l-0.4,110.5l-30.4-0.1L388.3,60.5z"/>
		<path class="st7" d="M447.3,60.8l28.9,0.1l-0.1,15.4h0.6c7.3-11.5,20.2-18.5,33.8-18.3c32.3,0.1,40.3,18.3,40.2,45.7l-0.3,68
			l-30.3-0.1l0.2-62.4c0.1-18.1-5.2-27.1-19.3-27.2c-16.5-0.1-23.5,9.1-23.6,31.5l-0.2,57.9l-30.4-0.1L447.3,60.8z"/>
		<circle class="st8" cx="594.5" cy="156.6" r="15.2"/>
		<circle class="st6" cx="403.6" cy="29.2" r="15.2"/>
		<path class="st1" d="M48.7,160.4H8V3.2h40.6V160.4z M14,154.4h28.6V9.2H14V154.4z"/>
		<path class="st1" d="M124.5,165c-0.1,0-0.2,0-0.3,0c-35.5-0.2-59.3-24.9-59.2-61.4c0.1-17,6-32.5,16.6-43.6
			c10.9-11.4,26.1-17.6,43-17.5c16.1,0.1,30,5.8,40,16.6c11.8,12.6,17.7,31.8,16.4,52.5l-0.2,2.8l-79.3-0.3c1.5,15,9.1,22,23.8,22.1
			c0,0,0.1,0,0.1,0c11.4,0,19.5-7,21-12.1l0.6-2.2l33.1,0.1l-1.3,3.9C170.3,151.8,152,165,124.5,165z M124.4,48.4
			c-15.1,0-28.8,5.6-38.4,15.7c-9.6,10-14.9,24-15,39.5c-0.1,33.5,20.8,55.2,53.2,55.4c0.1,0,0.2,0,0.3,0c23.5,0,39.1-10.2,47.3-31
			l-20.4-0.1c-4.1,8.9-16.1,14.2-26,14.2c0,0-0.1,0-0.1,0c-19.1-0.1-29.2-10.5-30-31l-0.1-3.1l80,0.3c0.6-18-4.8-34.3-14.9-45.2
			c-8.9-9.5-21.2-14.6-35.6-14.6C124.6,48.4,124.5,48.4,124.4,48.4z M151.4,95l-56.1-0.2l0.2-3.1c0.5-9.8,7.1-26.2,28.2-26.2
			c0.1,0,0.1,0,0.1,0c9.6,0,22.9,2.8,27,26.1L151.4,95z M101.8,88.8l42.3,0.2c-3-12.4-9.1-17.5-20.4-17.6c0,0-0.1,0-0.1,0
			C107.4,71.4,103,82.9,101.8,88.8z"/>
		<path class="st1" d="M372.8,162.9l-36.3-0.1l0.3-65.6c0.1-16.5-2.2-23.9-15.5-24c0,0-0.1,0-0.1,0c-11.9,0-17.2,7.7-17.3,24.9
			l-0.2,64.6l-36.4-0.1l0.3-66.6c0.1-7.5,0.1-15.3-4-19.4c-2.4-2.4-6.1-3.6-11.3-3.6c-1.8,0-17.5,0.6-17.6,22.4l-0.3,67.1l-36.3-0.2
			l0.4-116.5l34.6,0.1l0,10.2c8.3-8.5,18.9-13,31.1-13c0.1,0,0.1,0,0.2,0c14.8,0.1,26.1,5.7,32.6,16c8.3-10,20.4-15.7,33-15.7
			c13.2,0.1,23.6,3.4,31,9.9c8.2,7.3,12.3,18.3,12.3,32.8L372.8,162.9z M342.5,156.8l24.3,0.1l0.3-71c0-12.7-3.4-22.2-10.3-28.3
			c-6.2-5.5-15.3-8.3-27-8.4c0,0-0.1,0-0.2,0c-17.5,0-27.3,11.8-30.8,16.9l-3,4.5l-2.2-4.9C287.6,52,274.3,49.1,264.2,49
			c-12.8,0-23.7,5.7-31.4,16.6l-0.9,1.3h-5l0.1-15l-22.6-0.1L204,156.3l24.3,0.1l0.2-61.1c0.1-22.4,14.9-28.3,23.6-28.3
			c6.9,0,12,1.8,15.6,5.4c5.8,5.9,5.8,15.3,5.7,23.7l0,1.6l-0.2,59l24.3,0.1l0.2-58.6c0-9,1.4-15.7,4.2-20.7
			c3.8-6.8,10.3-10.2,19.1-10.2c0,0,0.1,0,0.1,0c21.6,0.1,21.5,18.1,21.5,30L342.5,156.8z"/>
		<path class="st1" d="M432.2,163.1l-36.3-0.1l0.5-116.5l36.4,0.1L432.2,163.1z M401.9,157l24.3,0.1l0.4-104.5l-24.4-0.1L401.9,157z
			"/>
		<path class="st1" d="M564.6,163.7l-36.3-0.1l0.3-65.4c0.1-14.5-2.7-24.2-16.4-24.2c-0.1,0-0.1,0-0.2,0c-12.2,0-20.4,4.9-20.4,28.6
			l-0.2,60.9l-36.3-0.1l0.5-116.5l34.8,0.1l0,10.5c8.1-8.5,19.6-13.5,31.5-13.3c38.4,0.2,43.3,26.1,43.2,48.7L564.6,163.7z
			 M534.3,157.6l24.3,0.1l0.2-65c0.1-30.2-10.7-42.6-37.2-42.7c-0.2,0-0.4,0-0.5,0c-12.4,0-24.1,6.4-30.8,16.9l-0.9,1.4h-5.3
			l0.1-15.4l-22.8-0.1L461,157.3l24.3,0.1l0.2-54.9c0.1-23.9,8.3-34.5,26.5-34.5c0.1,0,0.1,0,0.2,0c20.1,0.1,22.4,17.3,22.3,30.2
			L534.3,157.6z"/>
		<path class="st1" d="M605.5,163.8c-10,0-18.2-8.2-18.2-18.2s8.2-18.2,18.2-18.2s18.2,8.2,18.2,18.2S615.6,163.8,605.5,163.8z
			 M605.5,133.5c-6.7,0-12.2,5.5-12.2,12.2s5.5,12.2,12.2,12.2s12.2-5.5,12.2-12.2S612.3,133.5,605.5,133.5z"/>
		<path class="st1" d="M414.6,36.3c-10,0-18.2-8.2-18.2-18.2S404.6,0,414.6,0s18.2,8.2,18.2,18.2S424.6,36.3,414.6,36.3z M414.6,6
			c-6.7,0-12.2,5.5-12.2,12.2s5.5,12.2,12.2,12.2s12.2-5.5,12.2-12.2S421.3,6,414.6,6z"/>
	</g>
</g>
</svg>
